<?xml version="1.0" standalone="no"?><!DOCTYPE svg PUBLIC "-//W3C//DTD SVG 1.1//EN" "http://www.w3.org/Graphics/SVG/1.1/DTD/svg11.dtd"><svg t="1547693421593" class="icon" style="" viewBox="0 0 1024 1024" version="1.1" xmlns="http://www.w3.org/2000/svg" p-id="7083" xmlns:xlink="http://www.w3.org/1999/xlink" width="200" height="200"><defs><style type="text/css"></style></defs><path d="M662.186667 655.36a304.213333 304.213333 0 0 1-107.52-20.053333 31.146667 31.146667 0 1 1 22.186666-58.026667 243.626667 243.626667 0 0 0 307.626667-328.96 31.146667 31.146667 0 1 1 54.186667-25.6 305.92 305.92 0 0 1-278.186667 432.64zM410.453333 491.093333a31.146667 31.146667 0 0 1-26.453333-18.773333A305.92 305.92 0 0 1 662.186667 42.666667a302.933333 302.933333 0 0 1 134.4 31.146666 31.146667 31.146667 0 0 1-28.586667 56.746667 241.066667 241.066667 0 0 0-107.093333-24.746667 243.626667 243.626667 0 0 0-223.146667 341.333334 31.146667 31.146667 0 0 1-28.586667 42.666666z" fill="#ffffff" p-id="7084"></path><path d="M657.066667 448a98.56 98.56 0 1 1 98.56-98.56 98.56 98.56 0 0 1-98.56 98.56z m0-149.333333a48.64 48.64 0 1 0 48.64 48.64A49.066667 49.066667 0 0 0 657.066667 298.666667zM477.866667 732.16a31.146667 31.146667 0 0 1-23.04-52.053333l85.333333-91.733334a31.146667 31.146667 0 0 1 45.653333 42.666667l-85.333333 91.733333a31.146667 31.146667 0 0 1-22.613333 9.386667zM186.453333 981.333333a128 128 0 0 1-85.333333-33.28A128 128 0 0 1 85.333333 768l294.4-321.28a31.146667 31.146667 0 1 1 45.653334 42.666667L133.12 810.666667a65.706667 65.706667 0 0 0 8.96 92.16A65.28 65.28 0 0 0 234.24 896l40.533333-42.666667a31.146667 31.146667 0 1 1 42.666667 42.666667l-39.68 42.666667a128 128 0 0 1-91.306667 42.666666z" fill="#ffffff" p-id="7085"></path><path d="M542.72 797.013333a31.146667 31.146667 0 0 1-21.333333-8.533333L456.96 725.333333a31.146667 31.146667 0 1 1 42.666667-45.226666l64.853333 61.013333a31.146667 31.146667 0 0 1-21.333333 53.76zM512 944.64a30.72 30.72 0 0 1-21.333333-8.106667l-128-117.76a31.146667 31.146667 0 0 1 42.666666-45.653333l128 117.76a31.146667 31.146667 0 0 1-21.333333 53.76z" fill="#ffffff" p-id="7086"></path></svg>