<?xml version="1.0" standalone="no"?><!DOCTYPE svg PUBLIC "-//W3C//DTD SVG 1.1//EN" "http://www.w3.org/Graphics/SVG/1.1/DTD/svg11.dtd"><svg t="1548124670259" class="icon" style="" viewBox="0 0 1024 1024" version="1.1" xmlns="http://www.w3.org/2000/svg" p-id="822" xmlns:xlink="http://www.w3.org/1999/xlink" width="200" height="200"><defs><style type="text/css"></style></defs><path d="M575.9 516.2c63.6-45 105.3-119 105.3-202.6 0-137-111.4-248.3-248.3-248.3S184.6 176.7 184.6 313.6c0 83.7 41.7 157.6 105.3 202.6C121.2 575.4 0 736.2 0 924.8c0 18.1 14.8 32.9 32.9 32.9h799.9c18.1 0 32.9-14.8 32.9-32.9 0.1-188.6-121.2-349.4-289.8-408.6zM250.5 313.7c0-100.6 81.8-182.4 182.4-182.4 100.6 0 182.4 81.8 182.4 182.4 0 89.8-65.3 164.5-150.9 179.4-10.4-0.7-20.9-1.2-31.5-1.2-10.6 0-21.1 0.5-31.5 1.2-85.6-15-150.9-89.7-150.9-179.4zM67.4 891.8c15.7-175.8 156-316.3 331.7-332.4 11.1 1.5 22.3 2.6 33.8 2.6 11.5 0 22.7-1.1 33.8-2.6C642.5 575.6 782.6 716 798.4 891.8h-731z m0 0" p-id="823"></path><path d="M797.8 471.3c41-41.1 64.9-97.2 64.9-156.5 0-90.1-53.8-170.4-137.1-204.7-16.8-6.9-36.2 1.1-43.1 17.9-6.9 16.8 1.1 36 17.9 43.1 58.5 24.1 96.3 80.6 96.3 143.8 0 55.3-29.7 106.9-77.7 134.6-11.4 6.5-17.1 18.9-16.3 31.1-1.5 15.6 8.3 30.4 23.9 34.7C863 553.2 958.2 678.8 958.2 820.5c0 18.1 14.8 32.9 32.9 32.9 18.1 0 33-14.8 33-32.9 0.2-152-90.7-288.4-226.3-349.2z m0 0" p-id="824"></path></svg>