<?xml version="1.0" standalone="no"?><!DOCTYPE svg PUBLIC "-//W3C//DTD SVG 1.1//EN" "http://www.w3.org/Graphics/SVG/1.1/DTD/svg11.dtd"><svg t="1548304151989" class="icon" style="" viewBox="0 0 1024 1024" version="1.1" xmlns="http://www.w3.org/2000/svg" p-id="9796" xmlns:xlink="http://www.w3.org/1999/xlink" width="200" height="200"><defs><style type="text/css"></style></defs><path d="M812.16 233.216a668.992 668.992 0 0 1-151.232-40.768 1025.216 1025.216 0 0 1-149.888-75.52c-29.12 18.304-67.2 39.232-113.792 60.224a668.928 668.928 0 0 1-205.248 58.56v327.552c0 122.432 241.088 336.32 319.296 336.32 74.752 0 319.36-215.424 319.36-336.256l-0.192-327.616a729.28 729.28 0 0 1-18.304-2.56zM96 563.2V144.768l41.28-0.64a590.08 590.08 0 0 0 188.16-40.576C423.04 63.872 485.952 18.432 486.528 17.92L511.168 0l24.832 17.92c0.64 0.512 63.552 45.952 161.088 85.632a589.952 589.952 0 0 0 188.288 40.512l41.088 0.704 0.192 418.56c0 210.048-327.872 432.256-415.36 432.256C418.496 995.584 96 773.376 96 563.2z" p-id="9797"></path><path d="M463.808 556.608L695.296 325.12l67.84 67.84-231.488 231.552h0.064l-67.84 67.904-180.672-180.672 67.84-67.84 112.768 112.704z" p-id="9798"></path></svg>